<mxfile host="app.diagrams.net" modified="2023-10-03T07:33:31.146Z" agent="Mozilla/5.0 (Macintosh; Intel Mac OS X 10_15_7) AppleWebKit/537.36 (KHTML, like Gecko) Chrome/117.0.0.0 Safari/537.36" version="22.0.1" etag="pBxgA2jXnA4HpoVk6YHZ" type="github">
  <diagram name="Pagina-1" id="DuqBy8TJ-DVpKA3jqHiu">
    <mxGraphModel>
      <root>
        <mxCell id="0" />
        <mxCell id="1" parent="0" />
      </root>
    </mxGraphModel>
  </diagram>
</mxfile>
